# xmcd
#
# Track frame offsets: 
#        150
#        20337
#        43358
#        66759
#        81557
#        104114
#        122038
#        142343
#        159309
#        180895
#        201433
#        235834
#
# Disc length: 4288 seconds
#
# Revision: 0
# Processed by: cddbd v1.5.2PL0 Copyright (c) Steve Scherf et al.
# Submitted via: ExactAudioCopy v0.99pb3
#
DISCID=b010be0c
DTITLE=โอม ชาตรี คงสุวรรณ - Into the Light
DYEAR=2008
DGENRE=
TTITLE0=ลูกผู้ชายไม่หวั่นไหว
TTITLE1=Into the Light
TTITLE2=รักกันตลอดไป
TTITLE3=จะอะไรนักหนา
TTITLE4=เรื่องเล่าจากสายน้ำ
TTITLE5=เขาไม่เปลี่ยน
TTITLE6=Song for RW - สิ่งดีๆ จะกลับมา
TTITLE7=อย่าทำใจหาย
TTITLE8=Brave and Crazy
TTITLE9=ทุกคนสำคัญ
TTITLE10=Friends
TTITLE11=Misc
EXTD=
EXTT0=
EXTT1=
EXTT2=
EXTT3=
EXTT4=
EXTT5=
EXTT6=
EXTT7=
EXTT8=
EXTT9=
EXTT10=
EXTT11=
PLAYORDER=
